<svg width="168" height="16" viewBox="0 0 168 16" fill="none" xmlns="http://www.w3.org/2000/svg">
<path d="M5.16267 9.77954L3.6608 11.4274V15.4324H0V0.246854H3.6608V6.94268L4.93322 5.0132L8.20812 0.246854H12.7346L7.6032 6.96354L12.7346 15.4324H8.39586L5.16267 9.77954ZM26.442 8.15252C26.442 9.63352 26.1673 10.9442 25.618 12.0845C25.0687 13.2248 24.2882 14.1026 23.2766 14.718C22.2649 15.3333 21.1124 15.641 19.8191 15.641C18.5259 15.641 17.3786 15.3438 16.3774 14.7493C15.3761 14.1548 14.5956 13.3048 14.0359 12.1992C13.4762 11.0937 13.1824 9.82473 13.1546 8.3924V7.53717C13.1546 6.04921 13.4275 4.73681 13.9733 3.59998C14.5192 2.46315 15.3014 1.58532 16.32 0.966499C17.3386 0.347674 18.4981 0.0382617 19.7983 0.0382617C21.0846 0.0382617 22.2319 0.344198 23.2401 0.956069C24.2483 1.56794 25.0322 2.43882 25.592 3.56869C26.1517 4.69857 26.435 5.99358 26.442 7.45373V8.15252ZM22.7186 7.51631C22.7186 6.00749 22.4665 4.86197 21.9624 4.07974C21.4583 3.29752 20.737 2.90641 19.7983 2.90641C17.9627 2.90641 16.9927 4.28312 16.8884 7.03655L16.878 8.15252C16.878 9.64048 17.1248 10.7843 17.6185 11.5839C18.1122 12.3835 18.8457 12.7833 19.8191 12.7833C20.7439 12.7833 21.4566 12.3904 21.9572 11.6047C22.4578 10.819 22.7116 9.68915 22.7186 8.2151V7.51631ZM37.9904 8.99732H32.2333V12.6164H39.0334V15.4324H28.5725V0.246854H39.0542V3.07329H32.2333V6.27518H37.9904V8.99732ZM53.45 15.4324H49.81L44.4283 5.98315V15.4324H40.7675V0.246854H44.4283L49.7996 9.6961V0.246854H53.45V15.4324ZM59.9088 15.4324H56.2584V0.246854H59.9088V15.4324ZM75.1284 13.5551C74.5652 14.1808 73.7413 14.6849 72.6566 15.0674C71.5719 15.4498 70.383 15.641 69.0897 15.641C67.1011 15.641 65.5123 15.0326 64.3233 13.8158C63.1344 12.599 62.4982 10.9059 62.4147 8.73658L62.4043 7.42244C62.4043 5.92753 62.6685 4.62209 63.1969 3.50611C63.7254 2.39014 64.4815 1.53144 65.4654 0.929995C66.4492 0.328553 67.5878 0.027832 68.8811 0.027832C70.7723 0.027832 72.2412 0.460662 73.2876 1.32632C74.3341 2.19198 74.9442 3.48352 75.118 5.20093H71.5928C71.4676 4.35265 71.1965 3.74774 70.7793 3.38617C70.3621 3.02461 69.7711 2.84383 69.0062 2.84383C68.0884 2.84383 67.3792 3.23321 66.8786 4.01195C66.378 4.7907 66.1242 5.90319 66.1172 7.34944V8.26724C66.1172 9.78302 66.3763 10.9216 66.8943 11.6829C67.4123 12.4443 68.2275 12.825 69.34 12.825C70.2926 12.825 71.0018 12.6129 71.4676 12.1888V9.83169H68.9228V7.31815H75.1284V13.5551Z" fill="#121213"/>
<path d="M89.9219 8.72597H83.5494V15.4322H81.5469V0.246679H90.9544V1.89456H83.5494V7.08852H89.9219V8.72597ZM95.5017 15.4322H93.4992V0.246679H95.5017V15.4322ZM110.833 15.4322H108.82L101.175 3.73018V15.4322H99.1625V0.246679H101.175L108.841 12.0009V0.246679H110.833V15.4322ZM122.963 11.469H116.601L115.172 15.4322H113.107L118.906 0.246679H120.658L126.467 15.4322H124.413L122.963 11.469ZM117.206 9.82108H122.368L119.782 2.7185L117.206 9.82108ZM140.182 15.4322H138.169L130.524 3.73018V15.4322H128.512V0.246679H130.524L138.19 12.0009V0.246679H140.182V15.4322ZM154.909 10.6137C154.721 12.2199 154.128 13.4593 153.131 14.3319C152.133 15.2045 150.807 15.6408 149.152 15.6408C147.358 15.6408 145.92 14.9977 144.839 13.7113C143.758 12.425 143.217 10.7041 143.217 8.54867V7.08852C143.217 5.67704 143.469 4.43592 143.973 3.36514C144.478 2.29436 145.192 1.47216 146.117 0.898531C147.042 0.324901 148.112 0.0380859 149.329 0.0380859C150.942 0.0380859 152.235 0.488299 153.209 1.38872C154.182 2.28915 154.749 3.53549 154.909 5.12775H152.896C152.722 3.91791 152.345 3.04182 151.764 2.49948C151.184 1.95714 150.372 1.68597 149.329 1.68597C148.05 1.68597 147.047 2.15878 146.32 3.1044C145.594 4.05002 145.23 5.39544 145.23 7.14067V8.61125C145.23 10.2591 145.574 11.5698 146.263 12.5432C146.951 13.5167 147.914 14.0034 149.152 14.0034C150.264 14.0034 151.118 13.7513 151.712 13.2472C152.307 12.7431 152.701 11.8653 152.896 10.6137H154.909ZM166.225 8.41308H159.644V13.7948H167.289V15.4322H157.641V0.246679H167.185V1.89456H159.644V6.77563H166.225V8.41308Z" fill="#767A82"/>
</svg>
