<svg width="880" height="479" viewBox="0 0 880 479" fill="none" xmlns="http://www.w3.org/2000/svg">
<path fill-rule="evenodd" clip-rule="evenodd" d="M879.306 58.6152C879.855 60.4779 880.025 62.4314 879.807 64.3609C879.589 66.2903 878.986 68.1566 878.035 69.8498L650.66 471.072C648.765 474.48 645.605 477.007 641.862 478.106C638.08 479.14 634.043 478.649 630.62 476.738C627.207 474.824 624.654 471.679 623.484 467.946C622.93 466.075 622.774 464.108 623.027 462.173C623.279 460.238 623.935 458.378 624.951 456.711L852.131 55.5868C854.191 52.2642 857.442 49.8531 861.222 48.846C863.048 48.3165 864.965 48.1734 866.85 48.4257C868.735 48.678 870.547 49.3202 872.17 50.3114C873.848 51.1577 875.342 52.3269 876.567 53.7519C877.791 55.177 878.722 56.8297 879.306 58.6152Z" fill="#B4A9A4" fill-opacity="0.12"/>
<path fill-rule="evenodd" clip-rule="evenodd" d="M782.725 86.3596C784.563 85.7559 786.515 85.5829 788.43 85.854C790.346 86.125 792.173 86.8328 793.771 87.9227C795.498 88.8101 797.017 90.0521 798.23 91.5673C799.443 93.0825 800.322 94.8367 800.809 96.715C801.36 98.491 801.541 100.361 801.339 102.21C801.137 104.058 800.558 105.846 799.636 107.461L600.316 459.153C598.323 462.435 595.192 464.869 591.518 465.992C589.666 466.589 587.709 466.794 585.774 466.592C583.838 466.39 581.965 465.786 580.277 464.82C576.863 462.905 574.31 459.76 573.14 456.027C572.586 454.156 572.43 452.19 572.683 450.255C572.935 448.32 573.591 446.459 574.607 444.793L774.025 93.1004C774.952 91.4537 776.199 90.0091 777.693 88.8514C779.187 87.6938 780.898 86.8466 782.725 86.3596Z" fill="#B4A9A4" fill-opacity="0.12"/>
<path fill-rule="evenodd" clip-rule="evenodd" d="M703.935 124.655C705.803 124.07 707.776 123.897 709.718 124.15C711.659 124.403 713.522 125.076 715.177 126.12C716.869 127.098 718.347 128.407 719.523 129.968C720.698 131.529 721.548 133.31 722.02 135.206C722.646 137.064 722.875 139.034 722.689 140.986C722.504 142.939 721.91 144.831 720.944 146.538L548.018 452.315C546.037 455.729 542.816 458.248 539.024 459.349C537.2 459.913 535.28 460.099 533.381 459.898C531.482 459.696 529.644 459.111 527.978 458.177C524.506 456.193 521.945 452.933 520.842 449.091C520.282 447.221 520.123 445.254 520.375 443.318C520.628 441.382 521.287 439.521 522.309 437.857L695.333 131.787C696.213 130.081 697.428 128.57 698.906 127.344C700.385 126.119 702.095 125.204 703.935 124.655Z" fill="#B4A9A4" fill-opacity="0.12"/>
<path fill-rule="evenodd" clip-rule="evenodd" d="M616.935 169.594C617.902 167.912 619.196 166.442 620.741 165.267C622.285 164.093 624.049 163.239 625.928 162.755C627.764 162.173 629.706 162.002 631.615 162.255C633.524 162.509 635.354 163.18 636.974 164.221C638.676 165.141 640.176 166.394 641.385 167.904C642.594 169.414 643.488 171.151 644.013 173.013C644.608 174.829 644.785 176.757 644.531 178.651C644.277 180.546 643.599 182.358 642.546 183.954L493.276 448.407C492.357 450.089 491.102 451.564 489.589 452.741C488.075 453.917 486.336 454.77 484.478 455.246C482.615 455.8 480.66 455.973 478.728 455.755C476.797 455.536 474.929 454.931 473.237 453.976C469.873 452.028 467.362 448.891 466.198 445.184C465.599 443.319 465.42 441.345 465.673 439.402C465.927 437.46 466.607 435.598 467.665 433.949L616.935 169.594Z" fill="#B4A9A4" fill-opacity="0.12"/>
<path fill-rule="evenodd" clip-rule="evenodd" d="M547.529 201.539C549.356 201.009 551.273 200.866 553.158 201.119C555.043 201.371 556.855 202.013 558.478 203.004C560.204 203.892 561.724 205.134 562.937 206.649C564.15 208.164 565.029 209.918 565.516 211.797C566.11 213.615 566.312 215.539 566.11 217.441C565.908 219.344 565.306 221.182 564.343 222.836L437.263 447.528C435.282 450.942 432.061 453.461 428.27 454.562C426.417 455.153 424.461 455.355 422.526 455.153C420.591 454.951 418.719 454.351 417.028 453.39C413.556 451.406 410.995 448.146 409.892 444.304C409.332 442.434 409.173 440.466 409.425 438.531C409.678 436.595 410.337 434.734 411.358 433.07L538.438 208.377C540.502 205.038 543.747 202.597 547.529 201.539Z" fill="#B4A9A4" fill-opacity="0.12"/>
<path fill-rule="evenodd" clip-rule="evenodd" d="M509.894 158.359C510.784 156.619 512.029 155.085 513.549 153.856C515.069 152.626 516.831 151.73 518.719 151.223C520.608 150.717 522.582 150.612 524.514 150.916C526.445 151.219 528.292 151.925 529.934 152.986C531.599 153.927 533.062 155.188 534.236 156.697C535.411 158.206 536.274 159.933 536.776 161.778C537.368 163.581 537.569 165.489 537.367 167.375C537.165 169.261 536.564 171.083 535.603 172.72L379.197 449.873C377.248 453.235 374.109 455.744 370.399 456.907C368.531 457.492 366.558 457.665 364.617 457.411C362.676 457.158 360.813 456.486 359.158 455.441C355.744 453.527 353.191 450.382 352.022 446.649C351.485 444.776 351.338 442.812 351.591 440.88C351.843 438.948 352.489 437.088 353.488 435.414L509.894 158.359Z" fill="#B4A9A4" fill-opacity="0.12"/>
<path fill-rule="evenodd" clip-rule="evenodd" d="M291.317 453.292C290.717 451.427 290.538 449.453 290.791 447.511C291.045 445.569 291.725 443.706 292.783 442.058L481.546 108.048C482.517 106.33 483.822 104.824 485.383 103.616C486.944 102.409 488.73 101.524 490.637 101.014C492.468 100.44 494.406 100.291 496.303 100.579C498.2 100.867 500.007 101.583 501.585 102.674C503.312 103.576 504.836 104.821 506.063 106.333C507.291 107.845 508.195 109.592 508.721 111.467C509.276 113.296 509.45 115.219 509.231 117.118C509.013 119.017 508.407 120.851 507.45 122.506L318.688 456.418C316.703 459.889 313.441 462.447 309.597 463.55C305.814 464.525 301.801 464.002 298.395 462.091C294.989 460.179 292.453 457.027 291.317 453.292Z" fill="#B4A9A4" fill-opacity="0.12"/>
<path fill-rule="evenodd" clip-rule="evenodd" d="M245.567 476.445C243.678 477.013 241.694 477.202 239.731 477.001C237.768 476.8 235.865 476.212 234.13 475.273C230.846 473.281 228.41 470.151 227.287 466.48C226.688 464.615 226.509 462.641 226.762 460.699C227.016 458.757 227.696 456.895 228.754 455.246L453.587 58.0289C454.497 56.3716 455.724 54.9099 457.199 53.7277C458.675 52.5455 460.369 51.666 462.186 51.1396C464.002 50.6132 465.905 50.4502 467.784 50.6601C469.663 50.87 471.483 51.4486 473.138 52.3627C476.507 54.3955 478.958 57.6508 479.981 61.4481C480.61 63.2315 480.857 65.1273 480.706 67.0124C480.554 68.8974 480.008 70.7295 479.101 72.3896L254.267 469.607C252.341 472.907 249.231 475.352 245.567 476.445Z" fill="#B4A9A4" fill-opacity="0.12"/>
<path fill-rule="evenodd" clip-rule="evenodd" d="M196.788 420.077C196.202 418.21 196.03 416.238 196.283 414.298C196.536 412.358 197.209 410.496 198.255 408.842L424.653 7.71731C425.624 6.00014 426.929 4.49372 428.49 3.28603C430.051 2.07834 431.837 1.19359 433.744 0.683462C435.563 0.102589 437.489 -0.0672724 439.383 0.186141C441.276 0.439555 443.089 1.10992 444.692 2.14885C446.444 3.05207 447.979 4.32275 449.194 5.87395C450.409 7.42516 451.274 9.22029 451.73 11.1365C452.312 12.9573 452.508 14.879 452.306 16.7795C452.104 18.68 451.508 20.5177 450.557 22.1758L223.866 423.496C221.909 426.93 218.679 429.456 214.873 430.53C213.053 431.195 211.115 431.478 209.181 431.36C207.246 431.243 205.357 430.727 203.631 429.846C201.892 428.761 200.39 427.336 199.214 425.658C198.038 423.979 197.213 422.081 196.788 420.077Z" fill="#B4A9A4" fill-opacity="0.12"/>
<path fill-rule="evenodd" clip-rule="evenodd" d="M294.445 189.62C294.993 191.425 295.181 193.321 294.996 195.198C294.812 197.076 294.259 198.898 293.369 200.562L195.616 373.184C193.721 376.592 190.561 379.119 186.818 380.218C184.965 380.81 183.009 381.011 181.074 380.809C179.139 380.607 177.267 380.007 175.576 379.046C172.143 377.017 169.597 373.775 168.44 369.96C167.9 368.104 167.751 366.155 168.004 364.238C168.256 362.321 168.904 360.477 169.906 358.824L267.66 186.201C268.588 184.459 269.866 182.926 271.413 181.699C272.961 180.472 274.745 179.577 276.654 179.07C278.495 178.532 280.429 178.385 282.331 178.637C284.234 178.889 286.062 179.536 287.7 180.535C291.031 182.587 293.446 185.839 294.445 189.62Z" fill="#B4A9A4" fill-opacity="0.12"/>
<path fill-rule="evenodd" clip-rule="evenodd" d="M231.686 157.577C233.511 157.036 235.431 156.886 237.318 157.139C239.205 157.391 241.017 158.04 242.635 159.043C245.961 160.9 248.433 163.978 249.528 167.625C250.623 171.272 250.254 175.201 248.5 178.581L166.973 323.166C164.954 326.586 161.701 329.103 157.882 330.2C154.189 331.24 150.235 330.802 146.859 328.978C143.483 327.155 140.95 324.089 139.798 320.43C139.25 318.559 139.097 316.593 139.349 314.659C139.602 312.725 140.254 310.865 141.264 309.196L222.889 164.904C223.779 163.149 225.018 161.594 226.531 160.334C228.044 159.074 229.798 158.136 231.686 157.577Z" fill="#B4A9A4" fill-opacity="0.12"/>
<path fill-rule="evenodd" clip-rule="evenodd" d="M187.013 135.694C188.881 135.109 190.854 134.937 192.795 135.19C194.737 135.443 196.599 136.115 198.255 137.16C199.927 138.067 201.397 139.306 202.574 140.801C203.75 142.296 204.609 144.016 205.097 145.854C205.646 147.717 205.816 149.671 205.598 151.6C205.38 153.529 204.777 155.396 203.827 157.089L138.625 272.854C137.697 274.529 136.439 275.999 134.927 277.174C133.415 278.349 131.68 279.206 129.827 279.693C127.968 280.276 126.008 280.464 124.072 280.245C122.136 280.026 120.267 279.406 118.585 278.423C116.876 277.511 115.371 276.262 114.161 274.75C112.951 273.239 112.062 271.497 111.547 269.631C110.96 267.769 110.778 265.803 111.014 263.865C111.25 261.927 111.898 260.062 112.915 258.396L178.215 142.728C179.103 141.003 180.346 139.484 181.862 138.272C183.378 137.06 185.133 136.181 187.013 135.694Z" fill="#B4A9A4" fill-opacity="0.12"/>
<path fill-rule="evenodd" clip-rule="evenodd" d="M143.024 114.202C144.843 113.621 146.769 113.452 148.663 113.705C150.556 113.958 152.37 114.629 153.972 115.668C155.699 116.618 157.219 117.902 158.444 119.445C159.669 120.988 160.575 122.759 161.108 124.655C162.081 128.385 161.555 132.348 159.642 135.695L110.276 222.836C108.25 226.169 105.037 228.612 101.283 229.675C99.419 230.223 97.4642 230.393 95.5336 230.175C93.603 229.957 91.7355 229.355 90.0412 228.405C86.6276 226.49 84.0749 223.345 82.9052 219.612C82.3103 217.699 82.1596 215.675 82.4645 213.694C82.7694 211.714 83.5218 209.829 84.6647 208.182L133.542 121.236C134.507 119.439 135.858 117.877 137.497 116.661C139.136 115.445 141.023 114.606 143.024 114.202Z" fill="#B4A9A4" fill-opacity="0.12"/>
<path fill-rule="evenodd" clip-rule="evenodd" d="M116.337 102.674C116.923 104.527 117.121 106.481 116.92 108.414C116.718 110.346 116.12 112.217 115.164 113.909L81.9277 172.524C79.9348 175.806 76.8032 178.24 73.1298 179.363C71.2668 179.917 69.3111 180.09 67.3796 179.872C65.4482 179.653 63.5805 179.048 61.8881 178.093C60.1928 177.164 58.6982 175.908 57.4903 174.399C56.2824 172.89 55.385 171.158 54.8499 169.301C54.2604 167.402 54.0863 165.398 54.3393 163.426C54.5922 161.454 55.2664 159.559 56.3162 157.871L89.5525 99.2552C90.4937 97.5906 91.7559 96.1291 93.266 94.9553C94.7762 93.7815 96.5043 92.9187 98.3503 92.4168C100.175 91.8751 102.095 91.7256 103.982 91.9782C105.869 92.2308 107.681 92.8796 109.299 93.8821C111.025 94.7696 112.545 96.0116 113.758 97.5268C114.971 99.042 115.85 100.796 116.337 102.674Z" fill="#B4A9A4" fill-opacity="0.12"/>
<path fill-rule="evenodd" clip-rule="evenodd" d="M44.7813 78.1537C45.684 76.439 46.9315 74.9291 48.4454 73.7187C49.9593 72.5084 51.7071 71.6236 53.5792 71.1198C55.4462 70.5276 57.4205 70.3519 59.3628 70.6051C61.3052 70.8583 63.1683 71.5342 64.8209 72.5852C66.5136 73.5389 67.9936 74.8279 69.1703 76.3734C70.3469 77.9189 71.1954 79.6882 71.6636 81.5729C72.1952 83.3354 72.3653 85.187 72.1638 87.0167C71.9622 88.8464 71.3931 90.6167 70.4906 92.2214L53.5792 122.213C52.6284 123.938 51.3435 125.457 49.7995 126.682C48.2556 127.906 46.4832 128.811 44.5858 129.344C42.722 129.893 40.7672 130.063 38.8366 129.845C36.9059 129.627 35.0385 129.025 33.3441 128.074C29.8779 126.13 27.315 122.902 26.2081 119.087C25.6085 117.157 25.4292 115.121 25.6821 113.115C25.935 111.11 26.6143 109.182 27.6744 107.461L44.7813 78.1537Z" fill="#B4A9A4" fill-opacity="0.12"/>
<path fill-rule="evenodd" clip-rule="evenodd" d="M22.2979 43.5707C24.1131 44.2498 25.7697 45.2937 27.1652 46.638C28.5607 47.9822 29.6656 49.5982 30.4114 51.3861C31.8236 54.998 31.8236 59.0088 30.4114 62.6207L28.4564 66.8215C27.7191 68.6215 26.6306 70.2569 25.2544 71.6323C23.8782 73.0076 22.2418 74.0954 20.4405 74.8322C17.0384 76.1148 13.2853 76.1148 9.88312 74.8322C8.01734 74.1884 6.31984 73.1344 4.91566 71.748C3.51148 70.3617 2.43638 68.6781 1.76955 66.8215C0.997229 65.0493 0.598633 63.1371 0.598633 61.2041C0.598633 59.2712 0.997229 57.359 1.76955 55.5868L3.72463 51.6792C4.31645 49.8176 5.32993 48.1176 6.68628 46.7113C8.04262 45.3049 9.70527 44.2302 11.5449 43.5707C14.988 42.1486 18.8548 42.1486 22.2979 43.5707Z" fill="#B4A9A4" fill-opacity="0.12"/>
</svg>
