<svg width="149" height="79" viewBox="0 0 149 79" fill="none" xmlns="http://www.w3.org/2000/svg">
<defs>
<linearGradient id="paint0_linear_122_1748" x1="2.65468" y1="30.3259" x2="129.091" y2="59.3921" gradientUnits="userSpaceOnUse">
<stop stop-color="#FEBD00"/>
<stop offset="1" stop-color="#DF2245"/>
</linearGradient>
</defs>
<path d="M147.749 8.06004C148.9 8.70916 149.326 10.1363 148.734 11.2954L148.676 11.4032L110.591 77.7599C109.915 78.9369 108.405 79.3484 107.217 78.679C106.065 78.0299 105.64 76.6028 106.231 75.4437L106.289 75.3358L144.375 8.97913C145.05 7.80214 146.561 7.39065 147.749 8.06004ZM80.4068 7.33493C81.5566 7.98745 81.9777 9.41583 81.3829 10.5732L81.3242 10.6809L42.5598 77.7535C41.8808 78.9285 40.369 79.3355 39.1832 78.6626C38.0334 78.0101 37.6123 76.5817 38.2071 75.4244L38.2658 75.3167L77.0302 8.24403C77.7092 7.06904 79.221 6.66202 80.4068 7.33493ZM134.497 14.3313C135.647 14.9839 136.068 16.4122 135.473 17.5696L135.414 17.6773L101.953 75.5742C101.274 76.7492 99.7623 77.1562 98.5765 76.4833C97.4267 75.8308 97.0056 74.4024 97.6004 73.2451L97.6591 73.1374L131.12 15.2404C131.799 14.0654 133.311 13.6584 134.497 14.3313ZM85.0206 16.6786C86.1704 17.3311 86.5915 18.7595 85.9968 19.9168L85.938 20.0245L53.8333 75.5742C53.1542 76.7492 51.6424 77.1562 50.4567 76.4833C49.3068 75.8308 48.8858 74.4024 49.4805 73.2451L49.5392 73.1374L81.644 17.5877C82.323 16.4127 83.8348 16.0057 85.0206 16.6786ZM121.243 20.472C122.393 21.1232 122.816 22.5511 122.223 23.7092L122.164 23.8169L93.0308 74.3602C92.3531 75.536 90.8418 75.9447 89.6552 75.2732C88.5047 74.622 88.0819 73.1941 88.6753 72.0361L88.7339 71.9283L117.867 21.385C118.545 20.2092 120.056 19.8005 121.243 20.472ZM89.9 24.8879C91.0498 25.5405 91.4709 26.9688 90.8762 28.1262L90.8174 28.2339L64.2743 74.1605C63.5952 75.3355 62.0835 75.7425 60.8977 75.0696C59.7479 74.4171 59.3268 72.9887 59.9215 71.8314L59.9802 71.7237L86.5234 25.797C87.2024 24.6221 88.7142 24.215 89.9 24.8879ZM107.704 27.3863C108.854 28.0388 109.275 29.4672 108.68 30.6245L108.621 30.7322L83.774 73.7249C83.095 74.8999 81.5832 75.3069 80.3974 74.634C79.2476 73.9814 78.8265 72.5531 79.4212 71.3957L79.48 71.288L104.327 28.2954C105.007 27.1204 106.518 26.7134 107.704 27.3863ZM94.5694 33.4607C95.7192 34.1132 96.1403 35.5416 95.5456 36.6989L95.4868 36.8066L74.2167 73.6095C73.5376 74.7845 72.0259 75.1915 70.8401 74.5186C69.6903 73.8661 69.2692 72.4377 69.8639 71.2804L69.9227 71.1727L91.1928 34.3698C91.8719 33.1948 93.3836 32.7878 94.5694 33.4607ZM75.027 0.322367C76.1781 0.972784 76.6018 2.40039 76.0092 3.55882L75.9507 3.66661L38.0132 69.59C37.3363 70.7663 35.8253 71.176 34.6383 70.5053C33.4873 69.8549 33.0635 68.4273 33.6561 67.2688L33.7147 67.1611L71.6521 1.23763C72.329 0.061403 73.84 -0.348375 75.027 0.322367ZM48.8635 29.2839C50.0133 29.9364 50.4344 31.3648 49.8397 32.5221L49.7809 32.6298L33.0598 61.5617C32.3808 62.7367 30.869 63.1437 29.6832 62.4708C28.5334 61.8183 28.1123 60.3899 28.707 59.2326L28.7658 59.1249L45.4869 30.193C46.166 29.018 47.6777 28.6109 48.8635 29.2839ZM41.0427 26.1639C42.1925 26.8164 42.6136 28.2448 42.0189 29.4021L41.9601 29.5098L28.4284 52.9233C27.7493 54.0983 26.2376 54.5053 25.0518 53.8324C23.902 53.1798 23.4809 51.7515 24.0756 50.5941L24.1344 50.4864L37.6661 27.073C38.3452 25.898 39.8569 25.491 41.0427 26.1639ZM33.7122 22.1955C34.8621 22.848 35.2832 24.2764 34.6884 25.4337L34.6297 25.5414L23.383 45.0011C22.7039 46.1761 21.1922 46.5831 20.0064 45.9102C18.8566 45.2577 18.4355 43.8293 19.0302 42.672L19.089 42.5643L30.3356 23.1046C31.0147 21.9296 32.5265 21.5226 33.7122 22.1955ZM26.155 18.6195C27.3048 19.272 27.7259 20.7004 27.1312 21.8577L27.0724 21.9654L18.8195 36.2452C18.1404 37.4202 16.6286 37.8272 15.4429 37.1543C14.293 36.5018 13.872 35.0734 14.4667 33.9161L14.5254 33.8084L22.7784 19.5286C23.4575 18.3536 24.9692 17.9465 26.155 18.6195ZM18.4891 15.2315C19.6389 15.884 20.06 17.3124 19.4653 18.4697L19.4065 18.5774L13.8775 28.1441C13.1984 29.3191 11.6866 29.7262 10.5009 29.0532C9.35104 28.4007 8.92996 26.9723 9.5247 25.815L9.58344 25.7073L15.1125 16.1406C15.7916 14.9656 17.3033 14.5586 18.4891 15.2315ZM11.0295 11.4865C12.1794 12.139 12.6004 13.5674 12.0057 14.7248L11.947 14.8324L8.92779 20.0564C8.24871 21.2314 6.73695 21.6384 5.55119 20.9655C4.40135 20.313 3.98027 18.8846 4.57501 17.7272L4.63375 17.6196L7.65291 12.3956C8.332 11.2206 9.84375 10.8136 11.0295 11.4865ZM4.44674 6.49264C5.59657 7.14516 6.01765 8.57354 5.42292 9.73089L5.36417 9.83856L4.62163 11.1234C3.94255 12.2984 2.43079 12.7054 1.24502 12.0325C0.0951843 11.3799 -0.325893 9.95157 0.268841 8.79422L0.327582 8.68654L1.07013 7.40174C1.74921 6.22675 3.26097 5.81973 4.44674 6.49264Z" fill="url(#paint0_linear_122_1748)"/>
</svg>
