<svg width="168" height="136" viewBox="0 0 168 136" fill="none" xmlns="http://www.w3.org/2000/svg">
<defs>
<linearGradient id="paint0_linear_1_9" x1="21.2805" y1="26.1033" x2="129.918" y2="51.0286" gradientUnits="userSpaceOnUse">
<stop stop-color="#FEBD00"/>
<stop offset="1" stop-color="#DF2245"/>
</linearGradient>
</defs>
<path d="M145.925 6.93776C146.914 7.49649 147.28 8.7249 146.772 9.72261L146.722 9.81544L114.004 66.9326C113.424 67.9457 112.126 68.2999 111.106 67.7237C110.116 67.165 109.751 65.9366 110.259 64.9389L110.309 64.846L143.027 7.72887C143.607 6.71576 144.905 6.36157 145.925 6.93776ZM88.0743 6.31361C89.0621 6.87527 89.4238 8.10477 88.9129 9.10096L88.8624 9.19365L55.5615 66.9271C54.9781 67.9385 53.6794 68.2888 52.6608 67.7096C51.673 67.1479 51.3113 65.9184 51.8222 64.9222L51.8726 64.8296L85.1736 7.09613C85.7569 6.08474 87.0556 5.7344 88.0743 6.31361ZM134.541 12.3358C135.529 12.8975 135.891 14.127 135.38 15.1232L135.329 15.2159L106.584 65.0512C106.001 66.0626 104.702 66.413 103.683 65.8338C102.695 65.2721 102.334 64.0426 102.845 63.0464L102.895 62.9537L131.64 13.1184C132.224 12.107 133.522 11.7566 134.541 12.3358ZM92.0378 14.3562C93.0256 14.9179 93.3873 16.1474 92.8764 17.1436L92.8259 17.2363L65.246 65.0512C64.6627 66.0626 63.364 66.413 62.3453 65.8338C61.3576 65.2721 60.9958 64.0426 61.5067 63.0464L61.5572 62.9537L89.1371 15.1388C89.7205 14.1274 91.0192 13.777 92.0378 14.3562ZM123.155 17.6215C124.143 18.182 124.506 19.4111 123.997 20.4079L123.946 20.5006L98.9191 64.0063C98.3369 65.0183 97.0386 65.3702 96.0193 64.7921C95.0308 64.2316 94.6677 63.0025 95.1774 62.0057L95.2278 61.913L120.255 18.4073C120.837 17.3953 122.136 17.0435 123.155 17.6215ZM96.2295 21.4225C97.2173 21.9842 97.579 23.2137 97.0681 24.2099L97.0176 24.3026L74.2155 63.8344C73.6321 64.8458 72.3334 65.1961 71.3148 64.6169C70.327 64.0552 69.9653 62.8257 70.4762 61.8295L70.5267 61.7369L93.3288 22.2051C93.9122 21.1937 95.2109 20.8433 96.2295 21.4225ZM111.524 23.573C112.512 24.1347 112.874 25.3641 112.363 26.3603L112.312 26.453L90.967 63.4594C90.3836 64.4708 89.0849 64.8211 88.0662 64.2419C87.0785 63.6802 86.7167 62.4507 87.2276 61.4545L87.2781 61.3619L108.624 24.3555C109.207 23.3441 110.506 22.9938 111.524 23.573ZM100.241 28.8016C101.229 29.3632 101.59 30.5927 101.079 31.5889L101.029 31.6816L82.7566 63.3601C82.1733 64.3715 80.8746 64.7218 79.8559 64.1426C78.8682 63.581 78.5064 62.3515 79.0173 61.3553L79.0678 61.2626L97.3401 29.5841C97.9235 28.5727 99.2222 28.2224 100.241 28.8016ZM83.4528 0.277481C84.4416 0.837333 84.8056 2.06616 84.2965 3.06329L84.2462 3.15607L51.6557 59.9003C51.0742 60.9127 49.7761 61.2655 48.7564 60.6881C47.7676 60.1283 47.4036 58.8994 47.9126 57.9023L47.9629 57.8095L80.5535 1.0653C81.135 0.0528532 82.433 -0.299867 83.4528 0.277481ZM60.9767 25.2064C61.9645 25.768 62.3262 26.9975 61.8153 27.9937L61.7648 28.0864L47.4004 52.9898C46.817 54.0012 45.5183 54.3516 44.4997 53.7723C43.5119 53.2107 43.1502 51.9812 43.6611 50.985L43.7116 50.8923L58.076 25.9889C58.6593 24.9775 59.958 24.6271 60.9767 25.2064ZM54.2582 22.5208C55.2459 23.0825 55.6077 24.312 55.0967 25.3082L55.0463 25.4008L43.4217 45.5542C42.8384 46.5656 41.5397 46.9159 40.521 46.3367C39.5332 45.7751 39.1715 44.5456 39.6824 43.5494L39.7329 43.4567L51.3574 23.3033C51.9408 22.2919 53.2395 21.9416 54.2582 22.5208ZM47.9608 19.105C48.9486 19.6666 49.3104 20.8961 48.7994 21.8923L48.749 21.985L39.0874 38.7352C38.504 39.7465 37.2053 40.0969 36.1867 39.5177C35.1989 38.956 34.8372 37.7265 35.3481 36.7303L35.3986 36.6376L45.0601 19.8875C45.6435 18.8761 46.9422 18.5258 47.9608 19.105ZM41.4687 16.0269C42.4565 16.5885 42.8182 17.818 42.3073 18.8142L42.2569 18.9069L35.1671 31.1984C34.5837 32.2098 33.285 32.5601 32.2664 31.9809C31.2786 31.4193 30.9169 30.1898 31.4278 29.1936L31.4782 29.1009L38.568 16.8094C39.1514 15.798 40.4501 15.4477 41.4687 16.0269ZM34.8833 13.1106C35.871 13.6723 36.2328 14.9018 35.7218 15.898L35.6714 15.9907L30.9216 24.2253C30.3382 25.2367 29.0395 25.5871 28.0209 25.0079C27.0331 24.4462 26.6714 23.2167 27.1823 22.2205L27.2328 22.1278L31.9825 13.8932C32.5659 12.8818 33.8646 12.5314 34.8833 13.1106ZM28.475 9.88712C29.4628 10.4488 29.8245 11.6783 29.3136 12.6745L29.2632 12.7672L26.6695 17.2637C26.0861 18.2751 24.7874 18.6255 23.7688 18.0462C22.781 17.4846 22.4193 16.2551 22.9302 15.2589L22.9807 15.1662L25.5743 10.6696C26.1577 9.65825 27.4564 9.30791 28.475 9.88712ZM22.82 5.5886C23.8078 6.15026 24.1695 7.37975 23.6586 8.37595L23.6081 8.46863L22.9703 9.57454C22.3869 10.5859 21.0882 10.9363 20.0695 10.3571C19.0818 9.7954 18.72 8.5659 19.231 7.56971L19.2814 7.47702L19.9193 6.37112C20.5027 5.35973 21.8014 5.00939 22.82 5.5886Z" fill="url(#paint0_linear_1_9)"/>
<path d="M5.16267 129.78L3.6608 131.427V135.432H0V120.247H3.6608V126.943L4.93322 125.013L8.20812 120.247H12.7346L7.6032 126.964L12.7346 135.432H8.39586L5.16267 129.78ZM26.442 128.153C26.442 129.634 26.1673 130.944 25.618 132.084C25.0687 133.225 24.2882 134.103 23.2766 134.718C22.2649 135.333 21.1124 135.641 19.8191 135.641C18.5259 135.641 17.3786 135.344 16.3774 134.749C15.3761 134.155 14.5956 133.305 14.0359 132.199C13.4762 131.094 13.1824 129.825 13.1546 128.392V127.537C13.1546 126.049 13.4275 124.737 13.9733 123.6C14.5192 122.463 15.3014 121.585 16.32 120.966C17.3386 120.348 18.4981 120.038 19.7983 120.038C21.0846 120.038 22.2319 120.344 23.2401 120.956C24.2483 121.568 25.0322 122.439 25.592 123.569C26.1517 124.699 26.435 125.994 26.442 127.454V128.153ZM22.7186 127.516C22.7186 126.007 22.4665 124.862 21.9624 124.08C21.4583 123.298 20.737 122.906 19.7983 122.906C17.9627 122.906 16.9927 124.283 16.8884 127.037L16.878 128.153C16.878 129.64 17.1248 130.784 17.6185 131.584C18.1122 132.383 18.8457 132.783 19.8191 132.783C20.7439 132.783 21.4566 132.39 21.9572 131.605C22.4578 130.819 22.7116 129.689 22.7186 128.215V127.516ZM37.9904 128.997H32.2333V132.616H39.0334V135.432H28.5725V120.247H39.0542V123.073H32.2333V126.275H37.9904V128.997ZM53.45 135.432H49.81L44.4283 125.983V135.432H40.7675V120.247H44.4283L49.7996 129.696V120.247H53.45V135.432ZM59.9088 135.432H56.2584V120.247H59.9088V135.432ZM75.1284 133.555C74.5652 134.181 73.7413 134.685 72.6566 135.067C71.5719 135.45 70.383 135.641 69.0897 135.641C67.1011 135.641 65.5123 135.033 64.3233 133.816C63.1344 132.599 62.4982 130.906 62.4147 128.737L62.4043 127.422C62.4043 125.928 62.6685 124.622 63.1969 123.506C63.7254 122.39 64.4815 121.531 65.4654 120.93C66.4493 120.329 67.5878 120.028 68.8811 120.028C70.7723 120.028 72.2412 120.461 73.2876 121.326C74.3341 122.192 74.9442 123.484 75.118 125.201H71.5928C71.4676 124.353 71.1965 123.748 70.7793 123.386C70.3621 123.025 69.7711 122.844 69.0063 122.844C68.0884 122.844 67.3792 123.233 66.8786 124.012C66.378 124.791 66.1242 125.903 66.1172 127.349V128.267C66.1172 129.783 66.3762 130.922 66.8943 131.683C67.4123 132.444 68.2275 132.825 69.34 132.825C70.2926 132.825 71.0018 132.613 71.4676 132.189V129.832H68.9228V127.318H75.1284V133.555Z" fill="#121213"/>
<path d="M89.9219 128.726H83.5494V135.432H81.5469V120.247H90.9544V121.895H83.5494V127.089H89.9219V128.726ZM95.5017 135.432H93.4992V120.247H95.5017V135.432ZM110.833 135.432H108.82L101.175 123.73V135.432H99.1625V120.247H101.175L108.841 132.001V120.247H110.833V135.432ZM122.963 131.469H116.601L115.172 135.432H113.107L118.906 120.247H120.658L126.467 135.432H124.413L122.963 131.469ZM117.206 129.821H122.368L119.782 122.719L117.206 129.821ZM140.182 135.432H138.169L130.524 123.73V135.432H128.512V120.247H130.524L138.19 132.001V120.247H140.182V135.432ZM154.909 130.614C154.721 132.22 154.128 133.459 153.131 134.332C152.133 135.205 150.807 135.641 149.152 135.641C147.358 135.641 145.92 134.998 144.839 133.711C143.758 132.425 143.217 130.704 143.217 128.549V127.089C143.217 125.677 143.469 124.436 143.973 123.365C144.478 122.294 145.192 121.472 146.117 120.899C147.042 120.325 148.112 120.038 149.329 120.038C150.942 120.038 152.235 120.488 153.209 121.389C154.182 122.289 154.749 123.535 154.909 125.128H152.896C152.722 123.918 152.345 123.042 151.764 122.499C151.184 121.957 150.372 121.686 149.329 121.686C148.05 121.686 147.047 122.159 146.32 123.104C145.594 124.05 145.23 125.395 145.23 127.141V128.611C145.23 130.259 145.574 131.57 146.263 132.543C146.951 133.517 147.914 134.003 149.152 134.003C150.264 134.003 151.118 133.751 151.712 133.247C152.307 132.743 152.701 131.865 152.896 130.614H154.909ZM166.225 128.413H159.644V133.795H167.289V135.432H157.641V120.247H167.185V121.895H159.644V126.776H166.225V128.413Z" fill="#767A82"/>
</svg>
