<svg width="158" height="177" viewBox="0 0 158 177" fill="none" xmlns="http://www.w3.org/2000/svg">
<defs>
<clipPath id="clip0_2020_24096">
<path d="M12 0H145V177H12V0Z" fill="white"/>
</clipPath>
<clipPath id="clip1_2020_24096">
<rect width="103" height="205" rx="11" transform="matrix(-1 0 0 1 130 14)" fill="white"/>
</clipPath>
</defs>
<g clip-path="url(#clip0_2020_24096)">
<g clip-path="url(#clip1_2020_24096)">
<rect width="103" height="205" rx="11" transform="matrix(-1 0 0 1 130 14)" fill="#EAEAEA"/>
<circle cx="41" cy="28" r="6" fill="#D9D9D9"/>
<circle cx="40" cy="128" r="5" fill="#D9D9D9"/>
<circle cx="40" cy="145" r="5" fill="#D9D9D9"/>
<circle cx="40" cy="162" r="5" fill="#D9D9D9"/>
<circle cx="116" cy="28" r="6" fill="#D9D9D9"/>
<circle cx="49" cy="100" r="7" fill="#FE860E" fill-opacity="0.49"/>
<circle cx="69" cy="100" r="7" fill="#FE860E" fill-opacity="0.49"/>
<circle cx="89" cy="100" r="7" fill="#FE860E" fill-opacity="0.49"/>
<circle cx="109" cy="100" r="7" fill="#FE860E" fill-opacity="0.49"/>
<rect x="54" y="24" width="49" height="8" rx="2" fill="#D9D9D9"/>
<rect x="35" y="40" width="19" height="5" rx="2" fill="#D9D9D9"/>
<rect x="52" y="126" width="70" height="4" rx="2" fill="#D9D9D9"/>
<rect x="52" y="143" width="70" height="4" rx="2" fill="#D9D9D9"/>
<rect x="52" y="160" width="70" height="4" rx="2" fill="#D9D9D9"/>
<rect x="35" y="57" width="87" height="27" rx="5" fill="#626262"/>
<rect opacity="0.3" x="125" y="57" width="87" height="27" rx="5" fill="#626262"/>
</g>
</g>
<!-- <path d="M145 176H12V178H145V176Z" fill="#E6E6E6" mask="url(#path-1-inside-1_2020_24096)"/> -->
</svg>
