<svg width="184" height="184" viewBox="0 0 184 184" fill="none" xmlns="http://www.w3.org/2000/svg">
<rect width="184" height="184" rx="14" fill="#FFFFFB"/>
<path d="M18.4 12H12V18.4H18.4V12Z" fill="#403936"/>
<path d="M24.8 12H18.4V18.4H24.8V12Z" fill="#403936"/>
<path d="M31.2 12H24.8V18.4H31.2V12Z" fill="#403936"/>
<path d="M37.6 12H31.2V18.4H37.6V12Z" fill="#403936"/>
<path d="M44 12H37.6V18.4H44V12Z" fill="#403936"/>
<path d="M50.4 12H44V18.4H50.4V12Z" fill="#403936"/>
<path d="M56.8 12H50.4V18.4H56.8V12Z" fill="#403936"/>
<path d="M69.6 12H63.2V18.4H69.6V12Z" fill="#403936"/>
<path d="M76 12H69.6V18.4H76V12Z" fill="#403936"/>
<path d="M82.4 12H76V18.4H82.4V12Z" fill="#403936"/>
<path d="M108 12H101.6V18.4H108V12Z" fill="#403936"/>
<path d="M120.8 12H114.4V18.4H120.8V12Z" fill="#403936"/>
<path d="M133.6 12H127.2V18.4H133.6V12Z" fill="#403936"/>
<path d="M140 12H133.6V18.4H140V12Z" fill="#403936"/>
<path d="M146.4 12H140V18.4H146.4V12Z" fill="#403936"/>
<path d="M152.8 12H146.4V18.4H152.8V12Z" fill="#403936"/>
<path d="M159.2 12H152.8V18.4H159.2V12Z" fill="#403936"/>
<path d="M165.6 12H159.2V18.4H165.6V12Z" fill="#403936"/>
<path d="M172 12H165.6V18.4H172V12Z" fill="#403936"/>
<path d="M18.4 18.4H12V24.8H18.4V18.4Z" fill="#403936"/>
<path d="M56.8 18.4H50.4V24.8H56.8V18.4Z" fill="#403936"/>
<path d="M76 18.4H69.6V24.8H76V18.4Z" fill="#403936"/>
<path d="M82.4 18.4H76V24.8H82.4V18.4Z" fill="#403936"/>
<path d="M88.8 18.4H82.4V24.8H88.8V18.4Z" fill="#403936"/>
<path d="M101.6 18.4H95.2V24.8H101.6V18.4Z" fill="#403936"/>
<path d="M114.4 18.4H108L108 24.8H114.4V18.4Z" fill="#403936"/>
<path d="M120.8 18.4H114.4V24.8H120.8V18.4Z" fill="#403936"/>
<path d="M133.6 18.4H127.2V24.8H133.6V18.4Z" fill="#403936"/>
<path d="M172 18.4H165.6V24.8H172V18.4Z" fill="#403936"/>
<path d="M18.4 24.8H12V31.2H18.4V24.8Z" fill="#403936"/>
<path d="M31.2 24.8H24.8V31.2H31.2V24.8Z" fill="#403936"/>
<path d="M37.6 24.8H31.2V31.2H37.6V24.8Z" fill="#403936"/>
<path d="M44 24.8H37.6V31.2H44V24.8Z" fill="#403936"/>
<path d="M56.8 24.8H50.4V31.2H56.8V24.8Z" fill="#403936"/>
<path d="M76 24.8H69.6V31.2H76V24.8Z" fill="#403936"/>
<path d="M95.2 24.8H88.8V31.2H95.2V24.8Z" fill="#403936"/>
<path d="M108 24.8H101.6V31.2H108L108 24.8Z" fill="#403936"/>
<path d="M120.8 24.8H114.4V31.2H120.8V24.8Z" fill="#403936"/>
<path d="M133.6 24.8H127.2V31.2H133.6V24.8Z" fill="#403936"/>
<path d="M146.4 24.8H140V31.2H146.4V24.8Z" fill="#403936"/>
<path d="M152.8 24.8H146.4V31.2H152.8V24.8Z" fill="#403936"/>
<path d="M159.2 24.8H152.8V31.2H159.2V24.8Z" fill="#403936"/>
<path d="M172 24.8H165.6V31.2H172V24.8Z" fill="#403936"/>
<path d="M18.4 31.2H12V37.6H18.4V31.2Z" fill="#403936"/>
<path d="M31.2 31.2H24.8V37.6H31.2V31.2Z" fill="#403936"/>
<path d="M37.6 31.2H31.2V37.6H37.6V31.2Z" fill="#403936"/>
<path d="M44 31.2H37.6V37.6H44V31.2Z" fill="#403936"/>
<path d="M56.8 31.2H50.4V37.6H56.8V31.2Z" fill="#403936"/>
<path d="M69.6 31.2H63.2V37.6H69.6V31.2Z" fill="#403936"/>
<path d="M76 31.2H69.6V37.6H76V31.2Z" fill="#403936"/>
<path d="M95.2 31.2H88.8V37.6H95.2V31.2Z" fill="#403936"/>
<path d="M101.6 31.2H95.2V37.6H101.6V31.2Z" fill="#403936"/>
<path d="M133.6 31.2H127.2V37.6H133.6V31.2Z" fill="#403936"/>
<path d="M146.4 31.2H140V37.6H146.4V31.2Z" fill="#403936"/>
<path d="M152.8 31.2H146.4V37.6H152.8V31.2Z" fill="#403936"/>
<path d="M159.2 31.2H152.8V37.6H159.2V31.2Z" fill="#403936"/>
<path d="M172 31.2H165.6V37.6H172V31.2Z" fill="#403936"/>
<path d="M18.4 37.6H12V44H18.4V37.6Z" fill="#403936"/>
<path d="M31.2 37.6H24.8V44H31.2V37.6Z" fill="#403936"/>
<path d="M37.6 37.6H31.2V44H37.6V37.6Z" fill="#403936"/>
<path d="M44 37.6H37.6V44H44V37.6Z" fill="#403936"/>
<path d="M56.8 37.6H50.4V44H56.8V37.6Z" fill="#403936"/>
<path d="M88.8 37.6H82.4V44H88.8V37.6Z" fill="#403936"/>
<path d="M108 37.6H101.6V44H108V37.6Z" fill="#403936"/>
<path d="M120.8 37.6H114.4V44H120.8V37.6Z" fill="#403936"/>
<path d="M133.6 37.6H127.2V44H133.6V37.6Z" fill="#403936"/>
<path d="M146.4 37.6H140V44H146.4V37.6Z" fill="#403936"/>
<path d="M152.8 37.6H146.4V44H152.8V37.6Z" fill="#403936"/>
<path d="M159.2 37.6H152.8V44H159.2V37.6Z" fill="#403936"/>
<path d="M172 37.6H165.6V44H172V37.6Z" fill="#403936"/>
<path d="M18.4 44H12V50.4H18.4V44Z" fill="#403936"/>
<path d="M56.8 44H50.4V50.4H56.8V44Z" fill="#403936"/>
<path d="M69.6 44H63.2V50.4H69.6V44Z" fill="#403936"/>
<path d="M76 44H69.6V50.4H76V44Z" fill="#403936"/>
<path d="M82.4 44H76V50.4H82.4V44Z" fill="#403936"/>
<path d="M95.2 44H88.8V50.4H95.2V44Z" fill="#403936"/>
<path d="M108 44H101.6V50.4H108V44Z" fill="#403936"/>
<path d="M120.8 44H114.4V50.4H120.8V44Z" fill="#403936"/>
<path d="M133.6 44H127.2V50.4H133.6V44Z" fill="#403936"/>
<path d="M172 44H165.6V50.4H172V44Z" fill="#403936"/>
<path d="M18.4 50.4H12V56.8H18.4V50.4Z" fill="#403936"/>
<path d="M24.8 50.4H18.4V56.8H24.8V50.4Z" fill="#403936"/>
<path d="M31.2 50.4H24.8V56.8H31.2V50.4Z" fill="#403936"/>
<path d="M37.6 50.4H31.2V56.8H37.6V50.4Z" fill="#403936"/>
<path d="M44 50.4H37.6V56.8H44V50.4Z" fill="#403936"/>
<path d="M50.4 50.4H44V56.8H50.4V50.4Z" fill="#403936"/>
<path d="M56.8 50.4H50.4V56.8H56.8V50.4Z" fill="#403936"/>
<path d="M69.6 50.4H63.2V56.8H69.6V50.4Z" fill="#403936"/>
<path d="M82.4 50.4H76V56.8H82.4V50.4Z" fill="#403936"/>
<path d="M95.2 50.4H88.8V56.8H95.2V50.4Z" fill="#403936"/>
<path d="M108 50.4H101.6V56.8H108V50.4Z" fill="#403936"/>
<path d="M120.8 50.4H114.4V56.8H120.8V50.4Z" fill="#403936"/>
<path d="M133.6 50.4H127.2V56.8H133.6V50.4Z" fill="#403936"/>
<path d="M140 50.4H133.6V56.8H140V50.4Z" fill="#403936"/>
<path d="M146.4 50.4H140V56.8H146.4V50.4Z" fill="#403936"/>
<path d="M152.8 50.4H146.4V56.8H152.8V50.4Z" fill="#403936"/>
<path d="M159.2 50.4H152.8V56.8H159.2V50.4Z" fill="#403936"/>
<path d="M165.6 50.4H159.2V56.8H165.6V50.4Z" fill="#403936"/>
<path d="M172 50.4H165.6V56.8H172V50.4Z" fill="#403936"/>
<path d="M76 56.8H69.6V63.2H76V56.8Z" fill="#403936"/>
<path d="M95.2 56.8H88.8V63.2H95.2V56.8Z" fill="#403936"/>
<path d="M101.6 56.8H95.2V63.2H101.6V56.8Z" fill="#403936"/>
<path d="M50.4 63.2H44V69.6H50.4V63.2Z" fill="#403936"/>
<path d="M56.8 63.2H50.4V69.6H56.8V63.2Z" fill="#403936"/>
<path d="M69.6 63.2H63.2V69.6H69.6V63.2Z" fill="#403936"/>
<path d="M76 63.2H69.6V69.6H76V63.2Z" fill="#403936"/>
<path d="M82.4 63.2H76V69.6H82.4V63.2Z" fill="#403936"/>
<path d="M88.8 63.2H82.4V69.6H88.8V63.2Z" fill="#403936"/>
<path d="M95.2 63.2H88.8V69.6H95.2V63.2Z" fill="#403936"/>
<path d="M101.6 63.2H95.2V69.6H101.6V63.2Z" fill="#403936"/>
<path d="M114.4 63.2H108V69.6H114.4V63.2Z" fill="#403936"/>
<path d="M120.8 63.2H114.4V69.6H120.8V63.2Z" fill="#403936"/>
<path d="M127.2 63.2H120.8V69.6H127.2V63.2Z" fill="#403936"/>
<path d="M140 63.2H133.6V69.6H140V63.2Z" fill="#403936"/>
<path d="M152.8 63.2H146.4V69.6H152.8V63.2Z" fill="#403936"/>
<path d="M172 63.2H165.6V69.6H172V63.2Z" fill="#403936"/>
<path d="M18.4 69.6H12V76H18.4V69.6Z" fill="#403936"/>
<path d="M31.2 69.6H24.8V76H31.2V69.6Z" fill="#403936"/>
<path d="M37.6 69.6H31.2V76H37.6V69.6Z" fill="#403936"/>
<path d="M44 69.6H37.6V76H44V69.6Z" fill="#403936"/>
<path d="M50.4 69.6H44V76H50.4V69.6Z" fill="#403936"/>
<path d="M69.6 69.6H63.2V76H69.6V69.6Z" fill="#403936"/>
<path d="M76 69.6H69.6V76H76V69.6Z" fill="#403936"/>
<path d="M101.6 69.6H95.2V76H101.6V69.6Z" fill="#403936"/>
<path d="M108 69.6H101.6V76H108L108 69.6Z" fill="#403936"/>
<path d="M120.8 69.6H114.4V76H120.8V69.6Z" fill="#403936"/>
<path d="M127.2 69.6H120.8V76H127.2V69.6Z" fill="#403936"/>
<path d="M140 69.6H133.6V76H140V69.6Z" fill="#403936"/>
<path d="M146.4 69.6H140V76H146.4V69.6Z" fill="#403936"/>
<path d="M152.8 69.6H146.4V76H152.8V69.6Z" fill="#403936"/>
<path d="M159.2 69.6H152.8V76H159.2V69.6Z" fill="#403936"/>
<path d="M165.6 69.6H159.2V76H165.6V69.6Z" fill="#403936"/>
<path d="M24.8 76H18.4V82.4H24.8V76Z" fill="#403936"/>
<path d="M31.2 76H24.8V82.4H31.2V76Z" fill="#403936"/>
<path d="M37.6 76H31.2V82.4H37.6V76Z" fill="#403936"/>
<path d="M44 76H37.6V82.4H44V76Z" fill="#403936"/>
<path d="M56.8 76H50.4V82.4H56.8V76Z" fill="#403936"/>
<path d="M76 76H69.6V82.4H76V76Z" fill="#403936"/>
<path d="M88.8 76H82.4V82.4H88.8V76Z" fill="#403936"/>
<path d="M101.6 76H95.2V82.4H101.6V76Z" fill="#403936"/>
<path d="M133.6 76H127.2V82.4H133.6V76Z" fill="#403936"/>
<path d="M140 76H133.6V82.4H140V76Z" fill="#403936"/>
<path d="M146.4 76H140V82.4H146.4V76Z" fill="#403936"/>
<path d="M165.6 76H159.2V82.4H165.6V76Z" fill="#403936"/>
<path d="M172 76H165.6V82.4H172V76Z" fill="#403936"/>
<path d="M18.4 82.4H12V88.8H18.4V82.4Z" fill="#403936"/>
<path d="M31.2 82.4H24.8V88.8H31.2V82.4Z" fill="#403936"/>
<path d="M63.2 82.4H56.8V88.8H63.2V82.4Z" fill="#403936"/>
<path d="M101.6 82.4H95.2V88.8H101.6V82.4Z" fill="#403936"/>
<path d="M108 82.4H101.6V88.8H108V82.4Z" fill="#403936"/>
<path d="M114.4 82.4H108V88.8H114.4V82.4Z" fill="#403936"/>
<path d="M133.6 82.4H127.2V88.8H133.6V82.4Z" fill="#403936"/>
<path d="M152.8 82.4H146.4V88.8H152.8V82.4Z" fill="#403936"/>
<path d="M24.8 88.8H18.4V95.2H24.8V88.8Z" fill="#403936"/>
<path d="M31.2 88.8H24.8V95.2H31.2V88.8Z" fill="#403936"/>
<path d="M37.6 88.8H31.2V95.2H37.6V88.8Z" fill="#403936"/>
<path d="M44 88.8H37.6V95.2H44V88.8Z" fill="#403936"/>
<path d="M56.8 88.8H50.4V95.2H56.8V88.8Z" fill="#403936"/>
<path d="M63.2 88.8H56.8V95.2H63.2V88.8Z" fill="#403936"/>
<path d="M69.6 88.8H63.2V95.2H69.6V88.8Z" fill="#403936"/>
<path d="M76 88.8H69.6V95.2H76V88.8Z" fill="#403936"/>
<path d="M120.8 88.8H114.4V95.2H120.8V88.8Z" fill="#403936"/>
<path d="M127.2 88.8H120.8V95.2H127.2V88.8Z" fill="#403936"/>
<path d="M133.6 88.8H127.2V95.2H133.6V88.8Z" fill="#403936"/>
<path d="M140 88.8H133.6V95.2H140V88.8Z" fill="#403936"/>
<path d="M172 88.8H165.6V95.2H172V88.8Z" fill="#403936"/>
<path d="M37.6 95.2H31.2V101.6H37.6V95.2Z" fill="#403936"/>
<path d="M63.2 95.2H56.8V101.6H63.2V95.2Z" fill="#403936"/>
<path d="M76 95.2H69.6V101.6H76V95.2Z" fill="#403936"/>
<path d="M82.4 95.2H76V101.6H82.4V95.2Z" fill="#403936"/>
<path d="M88.8 95.2H82.4V101.6H88.8V95.2Z" fill="#403936"/>
<path d="M101.6 95.2H95.2V101.6H101.6V95.2Z" fill="#403936"/>
<path d="M108 95.2H101.6V101.6H108V95.2Z" fill="#403936"/>
<path d="M120.8 95.2H114.4V101.6H120.8V95.2Z" fill="#403936"/>
<path d="M127.2 95.2H120.8V101.6H127.2V95.2Z" fill="#403936"/>
<path d="M18.4 101.6H12V108H18.4V101.6Z" fill="#403936"/>
<path d="M31.2 101.6H24.8V108H31.2V101.6Z" fill="#403936"/>
<path d="M56.8 101.6H50.4V108H56.8V101.6Z" fill="#403936"/>
<path d="M69.6 101.6H63.2V108H69.6V101.6Z" fill="#403936"/>
<path d="M82.4 101.6H76V108H82.4V101.6Z" fill="#403936"/>
<path d="M95.2 101.6H88.8V108H95.2V101.6Z" fill="#403936"/>
<path d="M101.6 101.6H95.2V108H101.6V101.6Z" fill="#403936"/>
<path d="M108 101.6H101.6V108H108V101.6Z" fill="#403936"/>
<path d="M127.2 101.6H120.8V108H127.2V101.6Z" fill="#403936"/>
<path d="M133.6 101.6H127.2V108H133.6V101.6Z" fill="#403936"/>
<path d="M140 101.6H133.6V108H140V101.6Z" fill="#403936"/>
<path d="M152.8 101.6H146.4V108H152.8V101.6Z" fill="#403936"/>
<path d="M165.6 101.6H159.2V108H165.6V101.6Z" fill="#403936"/>
<path d="M31.2 108H24.8V114.4H31.2V108Z" fill="#403936"/>
<path d="M50.4 108L44 108V114.4H50.4V108Z" fill="#403936"/>
<path d="M63.2 108H56.8V114.4H63.2V108Z" fill="#403936"/>
<path d="M88.8 108H82.4V114.4H88.8V108Z" fill="#403936"/>
<path d="M120.8 108L114.4 108V114.4H120.8V108Z" fill="#403936"/>
<path d="M133.6 108H127.2V114.4H133.6V108Z" fill="#403936"/>
<path d="M140 108H133.6V114.4H140V108Z" fill="#403936"/>
<path d="M152.8 108H146.4V114.4H152.8V108Z" fill="#403936"/>
<path d="M24.8 114.4H18.4V120.8H24.8V114.4Z" fill="#403936"/>
<path d="M56.8 114.4H50.4V120.8H56.8V114.4Z" fill="#403936"/>
<path d="M82.4 114.4H76V120.8H82.4V114.4Z" fill="#403936"/>
<path d="M88.8 114.4H82.4V120.8H88.8V114.4Z" fill="#403936"/>
<path d="M101.6 114.4H95.2V120.8H101.6V114.4Z" fill="#403936"/>
<path d="M108 114.4H101.6V120.8H108V114.4Z" fill="#403936"/>
<path d="M120.8 114.4H114.4V120.8H120.8V114.4Z" fill="#403936"/>
<path d="M127.2 114.4H120.8V120.8H127.2V114.4Z" fill="#403936"/>
<path d="M133.6 114.4H127.2V120.8H133.6V114.4Z" fill="#403936"/>
<path d="M140 114.4H133.6V120.8H140V114.4Z" fill="#403936"/>
<path d="M146.4 114.4H140V120.8H146.4V114.4Z" fill="#403936"/>
<path d="M152.8 114.4H146.4V120.8H152.8V114.4Z" fill="#403936"/>
<path d="M165.6 114.4H159.2V120.8H165.6V114.4Z" fill="#403936"/>
<path d="M172 114.4H165.6V120.8H172V114.4Z" fill="#403936"/>
<path d="M69.6 120.8H63.2V127.2H69.6V120.8Z" fill="#403936"/>
<path d="M88.8 120.8H82.4V127.2H88.8V120.8Z" fill="#403936"/>
<path d="M101.6 120.8H95.2V127.2H101.6V120.8Z" fill="#403936"/>
<path d="M108 120.8H101.6V127.2H108V120.8Z" fill="#403936"/>
<path d="M114.4 120.8H108V127.2H114.4V120.8Z" fill="#403936"/>
<path d="M120.8 120.8H114.4V127.2H120.8V120.8Z" fill="#403936"/>
<path d="M146.4 120.8H140V127.2H146.4V120.8Z" fill="#403936"/>
<path d="M152.8 120.8H146.4V127.2H152.8V120.8Z" fill="#403936"/>
<path d="M159.2 120.8H152.8V127.2H159.2V120.8Z" fill="#403936"/>
<path d="M172 120.8H165.6V127.2H172V120.8Z" fill="#403936"/>
<path d="M18.4 127.2H12V133.6H18.4V127.2Z" fill="#403936"/>
<path d="M24.8 127.2H18.4V133.6H24.8V127.2Z" fill="#403936"/>
<path d="M31.2 127.2H24.8V133.6H31.2V127.2Z" fill="#403936"/>
<path d="M37.6 127.2H31.2V133.6H37.6V127.2Z" fill="#403936"/>
<path d="M44 127.2H37.6V133.6H44V127.2Z" fill="#403936"/>
<path d="M50.4 127.2H44V133.6H50.4V127.2Z" fill="#403936"/>
<path d="M56.8 127.2H50.4V133.6H56.8V127.2Z" fill="#403936"/>
<path d="M76 127.2H69.6V133.6H76V127.2Z" fill="#403936"/>
<path d="M82.4 127.2H76V133.6H82.4V127.2Z" fill="#403936"/>
<path d="M88.8 127.2H82.4V133.6H88.8V127.2Z" fill="#403936"/>
<path d="M95.2 127.2H88.8V133.6H95.2V127.2Z" fill="#403936"/>
<path d="M101.6 127.2H95.2V133.6H101.6V127.2Z" fill="#403936"/>
<path d="M108 127.2H101.6V133.6H108V127.2Z" fill="#403936"/>
<path d="M120.8 127.2H114.4V133.6H120.8V127.2Z" fill="#403936"/>
<path d="M133.6 127.2H127.2V133.6H133.6V127.2Z" fill="#403936"/>
<path d="M146.4 127.2H140V133.6H146.4V127.2Z" fill="#403936"/>
<path d="M172 127.2H165.6V133.6H172V127.2Z" fill="#403936"/>
<path d="M18.4 133.6H12V140H18.4V133.6Z" fill="#403936"/>
<path d="M56.8 133.6H50.4V140H56.8V133.6Z" fill="#403936"/>
<path d="M69.6 133.6H63.2V140H69.6V133.6Z" fill="#403936"/>
<path d="M76 133.6H69.6V140H76V133.6Z" fill="#403936"/>
<path d="M82.4 133.6H76V140H82.4V133.6Z" fill="#403936"/>
<path d="M88.8 133.6H82.4V140H88.8V133.6Z" fill="#403936"/>
<path d="M95.2 133.6H88.8V140H95.2V133.6Z" fill="#403936"/>
<path d="M114.4 133.6H108L108 140H114.4V133.6Z" fill="#403936"/>
<path d="M120.8 133.6H114.4V140H120.8V133.6Z" fill="#403936"/>
<path d="M146.4 133.6H140V140H146.4V133.6Z" fill="#403936"/>
<path d="M159.2 133.6H152.8V140H159.2V133.6Z" fill="#403936"/>
<path d="M165.6 133.6H159.2V140H165.6V133.6Z" fill="#403936"/>
<path d="M18.4 140H12V146.4H18.4V140Z" fill="#403936"/>
<path d="M31.2 140H24.8V146.4H31.2V140Z" fill="#403936"/>
<path d="M37.6 140H31.2V146.4H37.6V140Z" fill="#403936"/>
<path d="M44 140H37.6V146.4H44V140Z" fill="#403936"/>
<path d="M56.8 140H50.4V146.4H56.8V140Z" fill="#403936"/>
<path d="M88.8 140H82.4V146.4H88.8V140Z" fill="#403936"/>
<path d="M120.8 140H114.4V146.4H120.8V140Z" fill="#403936"/>
<path d="M127.2 140H120.8V146.4H127.2V140Z" fill="#403936"/>
<path d="M133.6 140H127.2V146.4H133.6V140Z" fill="#403936"/>
<path d="M140 140H133.6V146.4H140V140Z" fill="#403936"/>
<path d="M146.4 140H140V146.4H146.4V140Z" fill="#403936"/>
<path d="M152.8 140H146.4V146.4H152.8V140Z" fill="#403936"/>
<path d="M159.2 140H152.8V146.4H159.2V140Z" fill="#403936"/>
<path d="M172 140H165.6V146.4H172V140Z" fill="#403936"/>
<path d="M18.4 146.4H12V152.8H18.4V146.4Z" fill="#403936"/>
<path d="M31.2 146.4H24.8V152.8H31.2V146.4Z" fill="#403936"/>
<path d="M37.6 146.4H31.2V152.8H37.6V146.4Z" fill="#403936"/>
<path d="M44 146.4H37.6V152.8H44V146.4Z" fill="#403936"/>
<path d="M56.8 146.4H50.4V152.8H56.8V146.4Z" fill="#403936"/>
<path d="M82.4 146.4H76V152.8H82.4V146.4Z" fill="#403936"/>
<path d="M88.8 146.4H82.4V152.8H88.8V146.4Z" fill="#403936"/>
<path d="M95.2 146.4H88.8V152.8H95.2V146.4Z" fill="#403936"/>
<path d="M101.6 146.4H95.2V152.8H101.6V146.4Z" fill="#403936"/>
<path d="M114.4 146.4H108V152.8H114.4V146.4Z" fill="#403936"/>
<path d="M120.8 146.4H114.4V152.8H120.8V146.4Z" fill="#403936"/>
<path d="M127.2 146.4H120.8V152.8H127.2V146.4Z" fill="#403936"/>
<path d="M133.6 146.4H127.2V152.8H133.6V146.4Z" fill="#403936"/>
<path d="M140 146.4H133.6V152.8H140V146.4Z" fill="#403936"/>
<path d="M159.2 146.4H152.8V152.8H159.2V146.4Z" fill="#403936"/>
<path d="M165.6 146.4H159.2V152.8H165.6V146.4Z" fill="#403936"/>
<path d="M172 146.4H165.6V152.8H172V146.4Z" fill="#403936"/>
<path d="M18.4 152.8H12V159.2H18.4V152.8Z" fill="#403936"/>
<path d="M31.2 152.8H24.8V159.2H31.2V152.8Z" fill="#403936"/>
<path d="M37.6 152.8H31.2V159.2H37.6V152.8Z" fill="#403936"/>
<path d="M44 152.8H37.6V159.2H44V152.8Z" fill="#403936"/>
<path d="M56.8 152.8H50.4V159.2H56.8V152.8Z" fill="#403936"/>
<path d="M76 152.8H69.6V159.2H76V152.8Z" fill="#403936"/>
<path d="M82.4 152.8H76V159.2H82.4V152.8Z" fill="#403936"/>
<path d="M101.6 152.8H95.2V159.2H101.6V152.8Z" fill="#403936"/>
<path d="M108 152.8H101.6V159.2H108L108 152.8Z" fill="#403936"/>
<path d="M120.8 152.8H114.4V159.2H120.8V152.8Z" fill="#403936"/>
<path d="M140 152.8H133.6V159.2H140V152.8Z" fill="#403936"/>
<path d="M152.8 152.8H146.4V159.2H152.8V152.8Z" fill="#403936"/>
<path d="M159.2 152.8H152.8V159.2H159.2V152.8Z" fill="#403936"/>
<path d="M18.4 159.2H12V165.6H18.4V159.2Z" fill="#403936"/>
<path d="M56.8 159.2H50.4V165.6H56.8V159.2Z" fill="#403936"/>
<path d="M76 159.2H69.6V165.6H76V159.2Z" fill="#403936"/>
<path d="M108 159.2H101.6V165.6H108V159.2Z" fill="#403936"/>
<path d="M127.2 159.2H120.8V165.6H127.2V159.2Z" fill="#403936"/>
<path d="M140 159.2H133.6V165.6H140V159.2Z" fill="#403936"/>
<path d="M146.4 159.2H140V165.6H146.4V159.2Z" fill="#403936"/>
<path d="M172 159.2H165.6V165.6H172V159.2Z" fill="#403936"/>
<path d="M18.4 165.6H12V172H18.4V165.6Z" fill="#403936"/>
<path d="M24.8 165.6H18.4V172H24.8V165.6Z" fill="#403936"/>
<path d="M31.2 165.6H24.8V172H31.2V165.6Z" fill="#403936"/>
<path d="M37.6 165.6H31.2V172H37.6V165.6Z" fill="#403936"/>
<path d="M44 165.6H37.6V172H44V165.6Z" fill="#403936"/>
<path d="M50.4 165.6H44V172H50.4V165.6Z" fill="#403936"/>
<path d="M56.8 165.6H50.4V172H56.8V165.6Z" fill="#403936"/>
<path d="M76 165.6H69.6V172H76V165.6Z" fill="#403936"/>
<path d="M82.4 165.6H76V172H82.4V165.6Z" fill="#403936"/>
<path d="M95.2 165.6H88.8V172H95.2V165.6Z" fill="#403936"/>
<path d="M101.6 165.6H95.2V172H101.6V165.6Z" fill="#403936"/>
<path d="M108 165.6H101.6V172H108V165.6Z" fill="#403936"/>
<path d="M114.4 165.6H108V172H114.4V165.6Z" fill="#403936"/>
<path d="M120.8 165.6H114.4V172H120.8V165.6Z" fill="#403936"/>
<path d="M127.2 165.6H120.8V172H127.2V165.6Z" fill="#403936"/>
<path d="M133.6 165.6H127.2V172H133.6V165.6Z" fill="#403936"/>
<path d="M146.4 165.6H140V172H146.4V165.6Z" fill="#403936"/>
<path d="M159.2 165.6H152.8V172H159.2V165.6Z" fill="#403936"/>
<path d="M172 165.6H165.6V172H172V165.6Z" fill="#403936"/>
</svg>
